<svg xmlns="http://www.w3.org/2000/svg" width="960" height="540" viewBox="0 0 960 540">
  <defs>
    <linearGradient id="bg" x1="0%" y1="0%" x2="100%" y2="100%">
      <stop offset="0%" style="stop-color:#E6E6FA"/>
      <stop offset="100%" style="stop-color:#F8F9FE"/>
    </linearGradient>
  </defs>
  <rect width="960" height="540" fill="url(#bg)"/>
  <rect x="0" y="0" width="200" height="540" fill="#fff" opacity="0.95"/>
  <text x="24" y="40" font-family="Segoe UI, Arial, sans-serif" font-size="14" font-weight="700" fill="#4B0082">Navigation</text>
  <rect x="16" y="56" width="168" height="28" rx="8" fill="#9370DB"/>
  <text x="28" y="74" font-family="Segoe UI, Arial, sans-serif" font-size="11" fill="#fff">Home</text>
  <rect x="16" y="92" width="168" height="28" rx="8" fill="#EDE7F6"/>
  <text x="28" y="110" font-family="Segoe UI, Arial, sans-serif" font-size="11" fill="#4B0082">RAG Chatbot</text>
  <rect x="16" y="128" width="168" height="28" rx="8" fill="#EDE7F6"/>
  <text x="28" y="146" font-family="Segoe UI, Arial, sans-serif" font-size="11" fill="#4B0082">Mind Map</text>
  <rect x="220" y="24" width="720" height="492" rx="24" fill="#fff" opacity="0.92"/>
  <text x="260" y="80" font-family="Segoe UI, Arial, sans-serif" font-size="32" font-weight="800" fill="#4B0082">YouTube AI Assistant</text>
  <text x="260" y="120" font-family="Segoe UI, Arial, sans-serif" font-size="14" fill="#666">Paste a URL or upload media to summarize and index content</text>
  <rect x="260" y="150" width="520" height="40" rx="8" fill="#F3E5F5" stroke="#9370DB"/>
  <text x="276" y="176" font-family="Segoe UI, Arial, sans-serif" font-size="12" fill="#999">https://www.youtube.com/watch?v=...</text>
  <rect x="260" y="210" width="140" height="36" rx="10" fill="#6A5ACD"/>
  <text x="290" y="233" font-family="Segoe UI, Arial, sans-serif" font-size="12" fill="#fff">Summarize</text>
  <rect x="260" y="280" width="640" height="180" rx="12" fill="#FAFAFA" stroke="#E6E6FA"/>
  <text x="280" y="320" font-family="Segoe UI, Arial, sans-serif" font-size="13" fill="#333">Executive Summary</text>
  <text x="280" y="348" font-family="Segoe UI, Arial, sans-serif" font-size="11" fill="#555">" Key takeaway from indexed transcript</text>
  <text x="280" y="372" font-family="Segoe UI, Arial, sans-serif" font-size="11" fill="#555">" Bullet-point insights powered by Gemini</text>
</svg>
